<?xml version="1.0" encoding="UTF-8"?>

<svg xmlns="http://www.w3.org/2000/svg" style="display: none;">

    <symbol id="play" viewBox="0 0 448 512">
        <title id="play-title">play</title>
        <path d="M424.4 214.7L72.4 6.6C43.8-10.3 0 6.1 0 47.9V464c0 37.5 40.7 60.1 72.4 41.3l352-208c31.4-18.5 31.5-64.1 0-82.6zm-16.2 55.1l-352 208C45.6 483.9 32 476.6 32 464V47.9c0-16.3 16.4-18.4 24.1-13.8l352 208.1c10.5 6.2 10.5 21.4.1 27.6z"></path>
    </symbol>

    <symbol id="pause" viewBox="0 0 448 512">
        <title id="pause-title">pause</title>
        <path d="M48 479h96c26.5 0 48-21.5 48-48V79c0-26.5-21.5-48-48-48H48C21.5 31 0 52.5 0 79v352c0 26.5 21.5 48 48 48zM32 79c0-8.8 7.2-16 16-16h96c8.8 0 16 7.2 16 16v352c0 8.8-7.2 16-16 16H48c-8.8 0-16-7.2-16-16V79zm272 400h96c26.5 0 48-21.5 48-48V79c0-26.5-21.5-48-48-48h-96c-26.5 0-48 21.5-48 48v352c0 26.5 21.5 48 48 48zM288 79c0-8.8 7.2-16 16-16h96c8.8 0 16 7.2 16 16v352c0 8.8-7.2 16-16 16h-96c-8.8 0-16-7.2-16-16V79z"></path>
    </symbol>

    <symbol id="volume-down" viewBox="0 0 384 512">
        <title id="volume-down-title">volume-down</title>
        <path d="M341.86 180.883c-7.538-4.615-17.388-2.239-21.998 5.297-4.612 7.537-2.241 17.387 5.297 21.998C341.966 218.462 352 236.34 352 256s-10.034 37.538-26.841 47.822c-7.538 4.611-9.909 14.461-5.297 21.998 4.611 7.538 14.463 9.909 21.998 5.297C368.247 314.972 384 286.891 384 256s-15.753-58.972-42.14-75.117zM256 88.017v335.964c0 21.436-25.942 31.999-40.971 16.971L126.059 352H24c-13.255 0-24-10.745-24-24V184c0-13.255 10.745-24 24-24h102.059l88.971-88.954C230.037 56.038 256 66.551 256 88.017zm-32 19.311l-77.659 77.644A24.001 24.001 0 0 1 129.372 192H32v128h97.372a24.001 24.001 0 0 1 16.969 7.028L224 404.67V107.328z"></path>
    </symbol>

    <symbol id="volume-up" viewBox="0 0 576 512">
        <title id="volume-up-title">volume-up</title>
        <path d="M576 256c0 100.586-53.229 189.576-134.123 239.04-7.532 4.606-17.385 2.241-21.997-5.304-4.609-7.539-2.235-17.388 5.304-21.997C496.549 424.101 544 345.467 544 256c0-89.468-47.452-168.101-118.816-211.739-7.539-4.609-9.913-14.458-5.304-21.997 4.608-7.539 14.456-9.914 21.997-5.304C522.77 66.424 576 155.413 576 256zm-96 0c0-66.099-34.976-124.572-88.133-157.079-7.538-4.611-17.388-2.235-21.997 5.302-4.61 7.539-2.236 17.388 5.302 21.998C418.902 152.963 448 201.134 448 256c0 54.872-29.103 103.04-72.828 129.779-7.538 4.61-9.912 14.459-5.302 21.998 4.611 7.541 14.462 9.911 21.997 5.302C445.024 380.572 480 322.099 480 256zm-138.14-75.117c-7.538-4.615-17.388-2.239-21.998 5.297-4.612 7.537-2.241 17.387 5.297 21.998C341.966 218.462 352 236.34 352 256s-10.034 37.538-26.841 47.822c-7.538 4.611-9.909 14.461-5.297 21.998 4.611 7.538 14.463 9.909 21.998 5.297C368.247 314.972 384 286.891 384 256s-15.753-58.972-42.14-75.117zM256 88.017v335.964c0 21.436-25.942 31.999-40.971 16.971L126.059 352H24c-13.255 0-24-10.745-24-24V184c0-13.255 10.745-24 24-24h102.059l88.971-88.954C230.037 56.038 256 66.551 256 88.017zm-32 19.311l-77.659 77.644A24.001 24.001 0 0 1 129.372 192H32v128h97.372a24.001 24.001 0 0 1 16.969 7.028L224 404.67V107.328z"></path>
    </symbol>

    <symbol id="volume-off" viewBox="0 0 256 512">
        <title id="volume-off-title">volume-off</title>
        <path d="M256 88.017v335.964c0 21.436-25.942 31.999-40.971 16.971L126.059 352H24c-13.255 0-24-10.745-24-24V184c0-13.255 10.745-24 24-24h102.059l88.971-88.954C230.037 56.038 256 66.551 256 88.017zm-32 19.311l-77.659 77.644A24.001 24.001 0 0 1 129.372 192H32v128h97.372a24.001 24.001 0 0 1 16.969 7.028L224 404.67V107.328z"></path>
    </symbol>

    <symbol id="volume-mute" viewBox="0 0 640 512">
        <title id="volume-mute-title">volume-mute</title>
        <path d="M615.554 509.393L4.534 27.657c-5.188-4.124-6.051-11.673-1.927-16.861l4.978-6.263c4.124-5.188 11.673-6.051 16.861-1.927l611.021 481.736c5.188 4.124 6.051 11.673 1.927 16.861l-4.978 6.263c-4.125 5.189-11.674 6.051-16.862 1.927zM407.172 126.221C450.902 152.963 480 201.134 480 256c0 19.945-3.861 38.996-10.856 56.463l26.002 20.5C505.972 309.488 512 283.404 512 256c0-66.099-34.976-124.573-88.133-157.079-7.538-4.611-17.388-2.235-21.997 5.302-4.61 7.539-2.236 17.387 5.302 21.998zm-171.913 1.844L256 107.328v37.089l32 25.229v-81.63c0-21.466-25.963-31.979-40.97-16.971l-37.075 37.068 25.304 19.952zm221.925-83.804C528.548 87.899 576 166.532 576 256c0 42.442-10.685 82.442-29.529 117.428l25.467 20.078C594.94 352.775 608 305.811 608 256c0-100.587-53.23-189.576-134.123-239.04-7.541-4.61-17.389-2.235-21.997 5.304-4.609 7.539-2.235 17.387 5.304 21.997zM357.159 208.178c13.422 8.213 22.517 21.271 25.639 36.209l32.141 25.341a89.491 89.491 0 0 0 1.06-13.728c0-30.891-15.753-58.972-42.14-75.117-7.538-4.615-17.388-2.239-21.998 5.297-4.611 7.537-2.24 17.386 5.298 21.998zm128.318 239.41a248.52 248.52 0 0 1-28.293 20.151c-7.539 4.609-9.913 14.458-5.304 21.997 4.612 7.544 14.465 9.91 21.997 5.304a280.708 280.708 0 0 0 37.246-27.233l-25.646-20.219zM256 266.666V404.67l-77.659-77.643a24 24 0 0 0-16.969-7.028H64V192h97.296l-40.588-32H56c-13.255 0-24 10.745-24 24v144c0 13.255 10.745 24 24 24h102.059l88.971 88.952c15.029 15.028 40.97 4.465 40.97-16.971V291.895l-32-25.229zm151.123 119.147c-7.498 4.624-9.853 14.443-5.253 21.965 4.611 7.541 14.462 9.911 21.997 5.302a184.087 184.087 0 0 0 9.738-6.387l-26.482-20.88z"></path>
    </symbol>
</svg>